<svg width="85" height="85" viewBox="0 0 85 85" fill="none" xmlns="http://www.w3.org/2000/svg">
<g id="01) Icons/Line/persion-circle">
<path id="Fill 1" fill-rule="evenodd" clip-rule="evenodd" d="M60.7919 63.7573C56.2731 58.1088 49.3184 54.5079 41.5518 54.5079C34.1381 54.5079 27.4659 57.7911 23.0177 62.9453C17.5457 57.7911 14.1213 50.4834 14.1213 42.3637C14.1213 26.7597 26.7598 14.1213 42.3637 14.1213C57.9677 14.1213 70.6061 26.7597 70.6061 42.3637C70.6061 50.907 66.7934 58.6031 60.7919 63.7573ZM42.3637 70.6061C37.4213 70.6061 32.7966 69.3352 28.7721 67.1111C31.914 63.6832 36.5034 61.5685 41.5518 61.5685C46.8825 61.5685 51.6837 63.9338 54.861 67.6759C51.0836 69.547 46.8472 70.6061 42.3637 70.6061ZM42.3636 7.06061C22.8763 7.06061 7.06055 22.8764 7.06055 42.3636C7.06055 52.9545 11.7205 62.451 19.1342 68.9115C20.9346 70.5354 22.9116 71.9122 25.0298 73.1125C30.1487 76.0074 36.0796 77.6666 42.3636 77.6666C48.118 77.6666 53.5546 76.2898 58.3558 73.8186C60.5093 72.7242 62.5569 71.418 64.4279 69.9C72.5123 63.4395 77.6666 53.4841 77.6666 42.3636C77.6666 22.8764 61.8508 7.06061 42.3636 7.06061ZM41.5508 43.1752C37.6322 43.1752 34.4902 40.0333 34.4902 36.1146C34.4902 32.2313 37.6322 29.054 41.5508 29.054C45.4342 29.054 48.6115 32.2313 48.6115 36.1146C48.6115 40.0333 45.4342 43.1752 41.5508 43.1752ZM41.551 21.9935C33.749 21.9935 27.4298 28.3127 27.4298 36.1147C27.4298 43.9166 33.749 50.2359 41.551 50.2359C49.3529 50.2359 55.6722 43.9166 55.6722 36.1147C55.6722 28.3127 49.3529 21.9935 41.551 21.9935Z" fill="black"/>
</g>
</svg>
